HIERARCHY
ROOT hip
{
  OFFSET 0 0 0
  CHANNELS 6 Xposition Yposition Zposition Zrotation Yrotation Xrotation
  JOINT abdomen
  {
    OFFSET 0 20.6881 -0.73152
    CHANNELS 3 Zrotation Xrotation Yrotation
    JOINT chest
    {
      OFFSET 0 11.7043 -0.48768
      CHANNELS 3 Zrotation Xrotation Yrotation
      JOINT neck
      {
        OFFSET 0 22.1894 -2.19456
        CHANNELS 3 Zrotation Xrotation Yrotation
        JOINT head
        {
          OFFSET -0.24384 7.07133 1.2192
          CHANNELS 3 Zrotation Xrotation Yrotation
          JOINT leftEye
          {
            OFFSET 4.14528 8.04674 8.04672
            CHANNELS 3 Zrotation Xrotation Yrotation
            End Site
            {
              OFFSET 1 0 0
            }
          }
          JOINT rightEye
          {
            OFFSET -3.6576 8.04674 8.04672
            CHANNELS 3 Zrotation Xrotation Yrotation
            End Site
            {
              OFFSET 1 0 0
            }
          }
        }
      }
      JOINT rCollar
      {
        OFFSET -2.68224 19.2634 -4.8768
        CHANNELS 3 Zrotation Xrotation Yrotation
        JOINT rShldr
        {
          OFFSET -8.77824 -1.95073 1.46304
          CHANNELS 3 Zrotation Xrotation Yrotation
          JOINT rForeArm
          {
            OFFSET -28.1742 -1.7115 0.48768
            CHANNELS 3 Zrotation Xrotation Yrotation
            JOINT rHand
            {
              OFFSET -22.5879 0.773209 7.07136
              CHANNELS 3 Zrotation Xrotation Yrotation
              JOINT rThumb1
              {
                OFFSET -1.2192 -0.487915 3.41376
                CHANNELS 3 Zrotation Xrotation Yrotation
                JOINT rThumb2
                {
                  OFFSET -3.37035 -0.52449 3.41376
                  CHANNELS 3 Zrotation Xrotation Yrotation
                  End Site
                  {
                    OFFSET -1.78271 -1.18214 1.43049
                  }
                }
              }
              JOINT rIndex1
              {
                OFFSET -7.75947 0.938293 5.60832
                CHANNELS 3 Zrotation Xrotation Yrotation
                JOINT rIndex2
                {
                  OFFSET -2.54057 -0.884171 1.56538
                  CHANNELS 3 Zrotation Xrotation Yrotation
                  End Site
                  {
                    OFFSET -1.62519 -0.234802 1.16502
                  }
                }
              }
              JOINT rMid1
              {
                OFFSET -8.24714 1.18213 3.41376
                CHANNELS 3 Zrotation Xrotation Yrotation
                JOINT rMid2
                {
                  OFFSET -3.10165 -0.590103 1.0647
                  CHANNELS 3 Zrotation Xrotation Yrotation
                  End Site
                  {
                    OFFSET -2.48547 -0.328903 0.83742
                  }
                }
              }
              JOINT rRing1
              {
                OFFSET -8.82822 0.546677 1.51678
                CHANNELS 3 Zrotation Xrotation Yrotation
                JOINT rRing2
                {
                  OFFSET -2.60934 -0.819778 -0.0198488
                  CHANNELS 3 Zrotation Xrotation Yrotation
                  End Site
                  {
                    OFFSET -2.33842 -0.294052 0.168128
                  }
                }
              }
              JOINT rPinky1
              {
                OFFSET -8.27202 -0.0477905 -0.4584
                CHANNELS 3 Zrotation Xrotation Yrotation
                JOINT rPinky2
                {
                  OFFSET -1.82734 -0.647385 -0.700984
                  CHANNELS 3 Zrotation Xrotation Yrotation
                  End Site
                  {
                    OFFSET -1.69225 -0.51767 -0.607171
                  }
                }
              }
            }
          }
        }
      }
      JOINT lCollar
      {
        OFFSET 2.68224 19.2634 -4.8768
        CHANNELS 3 Zrotation Xrotation Yrotation
        JOINT lShldr
        {
          OFFSET 8.77824 -1.95073 1.46304
          CHANNELS 3 Zrotation Xrotation Yrotation
          JOINT lForeArm
          {
            OFFSET 28.1742 -1.7115 0.48768
            CHANNELS 3 Zrotation Xrotation Yrotation
            JOINT lHand
            {
              OFFSET 22.5879 0.773209 7.07136
              CHANNELS 3 Zrotation Xrotation Yrotation
              JOINT lThumb1
              {
                OFFSET 1.2192 -0.487915 3.41376
                CHANNELS 3 Zrotation Xrotation Yrotation
                JOINT lThumb2
                {
                  OFFSET 3.37035 -0.52449 3.41376
                  CHANNELS 3 Zrotation Xrotation Yrotation
                  End Site
                  {
                    OFFSET 1.78271 -1.18214 1.43049
                  }
                }
              }
              JOINT lIndex1
              {
                OFFSET 7.75947 0.938293 5.60832
                CHANNELS 3 Zrotation Xrotation Yrotation
                JOINT lIndex2
                {
                  OFFSET 2.54057 -0.884171 1.56538
                  CHANNELS 3 Zrotation Xrotation Yrotation
                  End Site
                  {
                    OFFSET 1.62519 -0.234802 1.16502
                  }
                }
              }
              JOINT lMid1
              {
                OFFSET 8.24714 1.18213 3.41376
                CHANNELS 3 Zrotation Xrotation Yrotation
                JOINT lMid2
                {
                  OFFSET 3.10165 -0.590103 1.0647
                  CHANNELS 3 Zrotation Xrotation Yrotation
                  End Site
                  {
                    OFFSET 2.48547 -0.328903 0.83742
                  }
                }
              }
              JOINT lRing1
              {
                OFFSET 8.82822 0.546677 1.51678
                CHANNELS 3 Zrotation Xrotation Yrotation
                JOINT lRing2
                {
                  OFFSET 2.60934 -0.819778 -0.0198488
                  CHANNELS 3 Zrotation Xrotation Yrotation
                  End Site
                  {
                    OFFSET 2.33842 -0.294052 0.168128
                  }
                }
              }
              JOINT lPinky1
              {
                OFFSET 8.27202 -0.0477905 -0.4584
                CHANNELS 3 Zrotation Xrotation Yrotation
                JOINT lPinky2
                {
                  OFFSET 1.82734 -0.647385 -0.700984
                  CHANNELS 3 Zrotation Xrotation Yrotation
                  End Site
                  {
                    OFFSET 1.69225 -0.51767 -0.607171
                  }
                }
              }
            }
          }
        }
      }
    }
  }
  JOINT rButtock
  {
    OFFSET -8.77824 4.35084 1.2192
    CHANNELS 3 Zrotation Xrotation Yrotation
    JOINT rThigh
    {
      OFFSET 0 -1.70687 -2.19456
      CHANNELS 3 Zrotation Xrotation Yrotation
      JOINT rShin
      {
        OFFSET 0 -36.8199 0.73152
        CHANNELS 3 Zrotation Xrotation Yrotation
        JOINT rFoot
        {
          OFFSET 0.73152 -45.1104 -5.12064
          CHANNELS 3 Zrotation Xrotation Yrotation
          End Site
          {
            OFFSET -1.1221 -3.69964 12.103
          }
        }
      }
    }
  }
  JOINT lButtock
  {
    OFFSET 8.77824 4.35084 1.2192
    CHANNELS 3 Zrotation Xrotation Yrotation
    JOINT lThigh
    {
      OFFSET 0 -1.70687 -2.19456
      CHANNELS 3 Zrotation Xrotation Yrotation
      JOINT lShin
      {
        OFFSET 0 -36.8199 0.73152
        CHANNELS 3 Zrotation Xrotation Yrotation
        JOINT lFoot
        {
          OFFSET -0.73152 -45.1104 -5.12064
          CHANNELS 3 Zrotation Xrotation Yrotation
          End Site
          {
            OFFSET 1.1221 -3.69964 12.103
          }
        }
      }
    }
  }
}
MOTION
Frames:	4
Frame Time:	0.00833333
-2.23795 84.1002 -46.2464 0.0 0.0 0.0 -1.51926 -0.00282953 -0.0413934 -0.418698 0.00102592 -0.0725111 -3.03932e-14 -7.95139e-16 -2.48481e-16 -9.13167e-14 3.18055e-15 -8.71236e-16 -0.0 0.0 0.0 -0.0 0.0 0.0 -1.52091e-14 -4.73667e-17 -4.96962e-17 -3.16972e-13 -8.19987e-16 -3.18055e-15 -5.49461e-12 1.61473e-12 -1.90833e-14 -6.29284e-11 -1.83061e-12 -7.53791e-13 -1.48432e-10 -4.71367e-13 -1.64753e-12 -2.56352e-10 -8.20583e-13 -2.83944e-12 -1.48427e-10 -4.68337e-13 -1.65389e-12 7.73091 5.47488 0.417314 -1.48432e-10 -4.7112e-13 -1.64435e-12 2.90554 0.965183 0.102902 -1.48421e-10 -4.70523e-13 -1.64832e-12 10.2786 0.731801 0.0259123 -1.48435e-10 -4.71915e-13 -1.64117e-12 2.22167 -0.733487 -0.20892 -1.52059e-14 -4.75608e-17 -3.47873e-16 -3.20923e-13 -1.01256e-15 -5.1684e-15 -5.50196e-12 -1.67953e-12 -9.54166e-15 -6.29166e-11 1.46512e-12 -7.50611e-13 -1.4842e-10 -4.66344e-13 -1.64435e-12 -2.56303e-10 -8.0468e-13 -2.8466e-12 -1.48427e-10 -4.64759e-13 -1.64435e-12 -7.73091 5.47488 -0.417314 -1.48421e-10 -4.65852e-13 -1.65071e-12 -2.90554 0.965183 -0.102902 -1.48433e-10 -4.65554e-13 -1.64912e-12 -10.2786 0.731801 -0.0259123 -1.48413e-10 -4.64361e-13 -1.66025e-12 -2.22167 -0.733487 0.20892 -2.03217e-16 0.0 -3.88251e-19 -0.640642 -1.92323 -0.00643458 -0.0092539 -2.07856 -0.0764213 -0.512042 3.99733 0.140295 2.03217e-16 0.0 3.88251e-19 -1.66984 -6.49781 0.154702 -0.00230986 6.20798 -0.0679765 0.534158 0.285499 -0.0665813
-3.47244 82.4524 -48.3637 -6.039 0.5154 7.3764 -0.141875 -1.46872 0.132009 0.923042 0.728137 -0.0658186 0.240044 0.0635381 0.322859 -2.21137 7.46139 1.09746 -0.0 0.0 0.0 -0.0 0.0 0.0 -5.37572e-14 8.56474e-14 -1.40508e-14 20.8389 6.64714 1.76245 -3.43814 -1.4335 5.50172 0.00489095 -1.55316 -0.217994 4.35641e-10 -6.97478e-11 -4.49375e-10 7.53909e-10 -1.21841e-10 -7.74927e-10 4.35649e-10 -6.97478e-11 -4.49379e-10 7.73091 5.47488 0.417314 4.35643e-10 -6.97511e-11 -4.4937e-10 2.90554 0.965183 0.102902 4.35654e-10 -6.97498e-11 -4.49373e-10 10.2786 0.731801 0.0259123 4.35636e-10 -6.97486e-11 -4.49366e-10 2.22167 -0.733487 -0.20892 -5.375e-14 8.56486e-14 -1.42911e-14 -22.9166 9.11396 -1.94476 3.55026 -1.49957 -5.66231 -0.00316946 -1.24976 0.175492 -2.92896e-11 5.49958e-10 6.21542e-10 -5.2005e-11 9.49048e-10 1.07437e-09 -2.92956e-11 5.49959e-10 6.21545e-10 -7.73091 5.47488 -0.417314 -2.92892e-11 5.49958e-10 6.21538e-10 -2.90554 0.965183 -0.102902 -2.93001e-11 5.49959e-10 6.21539e-10 -10.2786 0.731801 -0.0259123 -2.92837e-11 5.49959e-10 6.21527e-10 -2.22167 -0.733487 0.20892 -2.03217e-16 0.0 -3.88251e-19 1.33193 -6.728 -0.0413417 -0.00360321 4.78672 0.0468816 -0.708384 1.22521 -2.91026 2.03217e-16 0.0 3.88251e-19 0.69879 -9.91684 1.34076 -0.0164893 12.7274 -0.184755 0.634719 -3.3429 0.925963
-3.36242 82.5053 -48.4329 -5.9633 0.7759 7.4397 1.33006 -3.01378 0.314101 2.33554 1.49633 -0.0591423 0.492303 0.125179 0.665258 -4.87154 15.3467 2.32418 -0.0 0.0 0.0 -0.0 0.0 0.0 -9.90357e-14 1.79431e-13 -2.93021e-14 42.4077 13.6481 3.71452 -6.76875 -2.90096 11.319 -0.00280037 -3.18644 -0.447777 1.10466e-09 -1.70723e-10 -9.39821e-10 1.91104e-09 -2.97789e-10 -1.6206e-09 1.10467e-09 -1.70727e-10 -9.39823e-10 7.73091 5.47488 0.417314 1.10466e-09 -1.70731e-10 -9.39814e-10 2.90554 0.965183 0.102902 1.10467e-09 -1.70729e-10 -9.39816e-10 10.2786 0.731801 0.0259123 1.10465e-09 -1.70725e-10 -9.39809e-10 2.22167 -0.733487 -0.20892 -9.90225e-14 1.79434e-13 -2.94791e-14 -46.4397 18.7051 -4.16771 6.97822 -3.03305 -11.6533 0.00180747 -2.56538 0.360515 1.25067e-10 1.1802e-09 1.32597e-09 2.12933e-10 2.03662e-09 2.29211e-09 1.25062e-10 1.1802e-09 1.32597e-09 -7.73091 5.47488 -0.417314 1.25069e-10 1.1802e-09 1.32597e-09 -2.90554 0.965183 -0.102902 1.25059e-10 1.1802e-09 1.32597e-09 -10.2786 0.731801 -0.0259123 1.25072e-10 1.1802e-09 1.32595e-09 -2.22167 -0.733487 0.20892 -2.03217e-16 0.0 -3.88251e-19 3.41141 -11.8041 -0.075071 -0.0301955 12.052 0.181044 -1.23761 -1.70277 -6.13685 2.03217e-16 0.0 3.88251e-19 3.3585 -13.5167 2.62539 -0.000715004 19.6213 -0.317809 0.88072 -7.17749 1.99857
-3.27031 82.5453 -48.4485 -6.0091 0.8527 7.4251 2.63957 -4.40036 0.480099 3.60602 2.18236 -0.0524557 0.717985 0.19059 0.968581 -7.55027 22.3499 3.52997 -0.0 0.0 0.0 -0.0 0.0 0.0 -1.30853e-13 2.57037e-13 -4.20531e-14 61.2259 19.8635 5.58505 -9.49941 -4.14216 16.5444 -0.0208825 -4.65922 -0.65591 1.60379e-09 -2.08301e-10 -1.34483e-09 2.77443e-09 -3.63883e-10 -2.3191e-09 1.6038e-09 -2.08307e-10 -1.34483e-09 7.73091 5.47488 0.417314 1.60379e-09 -2.08311e-10 -1.34482e-09 2.90554 0.965183 0.102902 1.6038e-09 -2.08308e-10 -1.34482e-09 10.2786 0.731801 0.0259123 1.60378e-09 -2.08302e-10 -1.34482e-09 2.22167 -0.733487 -0.20892 -1.30838e-13 2.57041e-13 -4.21777e-14 -66.7014 27.2078 -6.48016 9.77394 -4.32328 -17.031 0.0135006 -3.74914 0.527479 2.08972e-10 1.65081e-09 1.86792e-09 3.5659e-10 2.84875e-09 3.22881e-09 2.08967e-10 1.65081e-09 1.86792e-09 -7.73091 5.47488 -0.417314 2.08974e-10 1.65081e-09 1.86792e-09 -2.90554 0.965183 -0.102902 2.08965e-10 1.65081e-09 1.86791e-09 -10.2786 0.731801 -0.0259123 2.08975e-10 1.65081e-09 1.8679e-09 -2.22167 -0.733487 0.20892 -2.03217e-16 0.0 -3.88251e-19 5.25885 -16.3375 -0.114951 -0.0842084 18.517 0.308888 -1.98427 -4.261 -9.03386 2.03217e-16 0.0 3.88251e-19 5.8782 -16.7277 3.81647 0.0434675 25.7657 -0.450255 1.21822 -10.5872 2.9567
